HIERARCHY
ROOT Hips
{
 OFFSET 0.000000 0.000000 0.000000
 CHANNELS 6 Xposition Yposition Zposition Yrotation Xrotation Zrotation
 JOINT Chest
 {
  OFFSET 0.000000 9.585900 0.002600
  CHANNELS 3 Yrotation Xrotation Zrotation
  JOINT Chest2
  {
   OFFSET 0.000000 9.601200 -0.005300
   CHANNELS 3 Yrotation Xrotation Zrotation
   JOINT Chest3
   {
    OFFSET 0.000000 9.561800 0.000000
    CHANNELS 3 Yrotation Xrotation Zrotation
    JOINT Chest4
    {
     OFFSET 0.000000 9.552100 0.000000
     CHANNELS 3 Yrotation Xrotation Zrotation
     JOINT Neck
     {
      OFFSET 0.000000 14.453000 0.000000
      CHANNELS 3 Yrotation Xrotation Zrotation
      JOINT Head
      {
       OFFSET 0.000000 8.936500 -0.011300
       CHANNELS 3 Yrotation Xrotation Zrotation
       End Site
       {
        OFFSET 0.000000 17.073600 -0.006000
       }
      }
     }
     JOINT RightCollar
     {
      OFFSET -2.921100 9.558500 0.000000
      CHANNELS 3 Yrotation Xrotation Zrotation
      JOINT RightShoulder
      {
       OFFSET -13.519700 0.000000 0.000000
       CHANNELS 3 Yrotation Xrotation Zrotation
       JOINT RightElbow
       {
        OFFSET 0.000000 -29.696600 0.000000
        CHANNELS 3 Yrotation Xrotation Zrotation
        JOINT RightWrist
        {
         OFFSET 0.000000 -24.004700 0.000000
         CHANNELS 3 Yrotation Xrotation Zrotation
         End Site
         {
          OFFSET 0.000000 -17.728500 0.000000
         }
        }
       }
      }
     }
     JOINT LeftCollar
     {
      OFFSET 2.921100 9.558500 0.000000
      CHANNELS 3 Yrotation Xrotation Zrotation
      JOINT LeftShoulder
      {
       OFFSET 13.519700 0.000000 0.000000
       CHANNELS 3 Yrotation Xrotation Zrotation
       JOINT LeftElbow
       {
        OFFSET 0.000000 -29.696600 0.000000
        CHANNELS 3 Yrotation Xrotation Zrotation
        JOINT LeftWrist
        {
         OFFSET 0.000000 -24.004700 0.000000
         CHANNELS 3 Yrotation Xrotation Zrotation
         End Site
         {
          OFFSET 0.000000 -17.728500 0.000000
         }
        }
       }
      }
     }
    }
   }
  }
 }
 JOINT RightHip
 {
  OFFSET -7.771700 -0.012900 -0.001300
  CHANNELS 3 Yrotation Xrotation Zrotation
  JOINT RightKnee
  {
   OFFSET 0.000000 -40.869800 0.001200
   CHANNELS 3 Yrotation Xrotation Zrotation
   JOINT RightAnkle
   {
    OFFSET 0.000000 -39.717900 0.002100
    CHANNELS 3 Yrotation Xrotation Zrotation
    JOINT RightToe
    {
     OFFSET 0.000000 -4.965400 11.033500
     CHANNELS 3 Yrotation Xrotation Zrotation
     End Site
     {
      OFFSET 0.000000 -1.423100 5.872300
     }
    }
   }
  }
 }
 JOINT LeftHip
 {
  OFFSET 7.771700 -0.012900 -0.001300
  CHANNELS 3 Yrotation Xrotation Zrotation
  JOINT LeftKnee
  {
   OFFSET 0.000000 -40.869800 0.001200
   CHANNELS 3 Yrotation Xrotation Zrotation
   JOINT LeftAnkle
   {
    OFFSET 0.000000 -39.717900 0.002100
    CHANNELS 3 Yrotation Xrotation Zrotation
    JOINT LeftToe
    {
     OFFSET 0.000000 -4.965400 11.033500
     CHANNELS 3 Yrotation Xrotation Zrotation
     End Site
     {
      OFFSET 0.000000 -1.423100 5.872300
     }
    }
   }
  }
 }
}
MOTION
Frames: 5
Frame Time: 0.008333
-56.171196 57.248874 14.692652 159.931232 -12.908602 0.379912 2.576039 9.689867 1.692280 0.221708 0.628636 0.036446 0.136412 0.995346 0.102282 2.106901 9.105808 0.919094 0.269195 17.736360 -2.328780 1.313370 -2.803746 -4.407920 2.102139 10.928856 0.663409 -5.486139 -11.338282 -6.619731 -70.151584 -85.814949 85.577311 -1.845481 4.751294 -20.776225 -6.555107 12.256489 -2.105515 18.594588 -8.209604 -0.446228 75.568844 -76.364066 -92.926468 -0.399206 8.327851 15.840275 -12.880439 -59.642474 7.085817 -35.395496 71.346459 -36.882509 -3.910533 -6.411393 -1.576937 -0.403617 0.704174 -0.113132 4.374221 -62.372352 14.588684 39.700617 65.351994 32.489876 -18.292585 -10.978664 4.733294 -0.013054 -0.895736 0.020448
-56.168381 57.249120 14.689905 159.868914 -12.970126 0.369985 2.546816 9.716690 1.714672 0.224162 0.633026 0.039588 0.131016 0.994594 0.101117 2.062680 9.112040 0.934990 0.305521 17.732352 -2.328692 1.335204 -2.821369 -4.391294 2.101573 10.948843 0.650578 -5.409144 -11.329391 -6.650157 -70.284606 -85.774682 85.709651 -1.871732 4.724807 -20.795910 -6.601110 12.281986 -2.092014 18.697525 -8.198559 -0.514014 75.596009 -76.362820 -93.006960 -0.385983 8.319529 15.857209 -12.760258 -59.583561 7.085681 -35.488990 71.318614 -36.974561 -3.953870 -6.394067 -1.576744 -0.379051 0.698904 -0.100910 4.433731 -62.311519 14.655436 39.657523 65.381673 32.422949 -18.318079 -10.977493 4.746172 -0.025214 -0.900947 0.034186
-56.173012 57.248414 14.688973 159.816335 -13.004300 0.395530 2.548504 9.734212 1.699303 0.104780 0.588723 0.052967 0.200349 1.023916 0.092456 2.044027 9.123595 0.942919 0.323936 17.727162 -2.313710 1.376410 -2.823689 -4.395418 2.154894 10.967214 0.628980 -5.567703 -11.315738 -6.554743 -70.305067 -85.785134 85.867939 -1.904156 4.698483 -20.830640 -6.625437 12.289371 -2.083362 18.747853 -8.178957 -0.549099 75.635853 -76.358155 -93.070067 -0.384127 8.311227 15.853672 -12.589687 -59.559598 7.024609 -35.535407 71.288109 -37.042983 -3.992356 -6.377100 -1.560673 -0.374590 0.704769 -0.102502 4.532897 -62.276570 14.638074 39.682534 65.397056 32.410786 -18.297428 -10.948356 4.751781 -0.094001 -0.936367 0.048421
-56.179213 57.247797 14.686594 159.765125 -13.042289 0.431891 2.474268 9.730739 1.665566 0.103308 0.590385 0.053761 0.221021 1.035718 0.091109 2.025466 9.135519 0.950853 0.344131 17.724601 -2.298656 1.444887 -2.807842 -4.448234 2.136223 10.966943 0.634048 -5.592691 -11.291635 -6.531339 -70.337860 -85.771678 85.976265 -1.938636 4.676136 -20.873006 -6.626026 12.291990 -2.084344 18.764174 -8.162113 -0.566823 75.675509 -76.357681 -93.121809 -0.381983 8.303050 15.856869 -12.391250 -59.536608 6.933158 -35.578444 71.264521 -37.103745 -4.055056 -6.362752 -1.521003 -0.356785 0.713071 -0.108256 4.651862 -62.235889 14.601869 39.778246 65.409356 32.433082 -18.267067 -10.926670 4.825742 -0.146553 -0.961896 0.018454
-56.177765 57.247513 14.684565 159.652775 -13.093007 0.437327 2.464869 9.740929 1.677508 0.126664 0.600960 0.052986 0.219048 1.038147 0.092315 2.007020 9.147606 0.960005 0.364636 17.721975 -2.286270 1.442238 -2.833298 -4.355963 2.116206 10.965141 0.638653 -5.582666 -11.270476 -6.530161 -70.372228 -85.744993 86.042469 -1.969728 4.658783 -20.913447 -6.629106 12.291695 -2.086525 18.770508 -8.149184 -0.582793 75.710619 -76.362619 -93.154160 -0.377384 8.288858 15.870565 -12.194237 -59.491692 6.920030 -35.623223 71.232529 -37.166016 -4.093849 -6.328107 -1.484233 -0.356678 0.708723 -0.111011 4.769539 -62.182666 14.667450 39.739856 65.441492 32.356630 -18.294326 -10.917456 4.868057 -0.108677 -0.947100 -0.002183
